<?xml version="1.0" encoding="utf-8" standalone="no"?>
<!DOCTYPE svg PUBLIC "-//W3C//DTD SVG 1.1//EN"
  "http://www.w3.org/Graphics/SVG/1.1/DTD/svg11.dtd">
<!-- Created with matplotlib (https://matplotlib.org/) -->
<svg height="345.6pt" version="1.1" viewBox="0 0 460.8 345.6" width="460.8pt" xmlns="http://www.w3.org/2000/svg" xmlns:xlink="http://www.w3.org/1999/xlink">
 <defs>
  <style type="text/css">
*{stroke-linecap:butt;stroke-linejoin:round;}
  </style>
 </defs>
 <g id="figure_1">
  <g id="patch_1">
   <path d="M 0 345.6 
L 460.8 345.6 
L 460.8 0 
L 0 0 
z
" style="fill:#ffffff;"/>
  </g>
  <g id="axes_1">
   <g id="patch_2">
    <path d="M 57.6 307.584 
L 414.72 307.584 
L 414.72 41.472 
L 57.6 41.472 
z
" style="fill:#eaeaf2;"/>
   </g>
   <g id="matplotlib.axis_1">
    <g id="xtick_1">
     <g id="line2d_1">
      <path clip-path="url(#p2865110eaf)" d="M 57.6 307.584 
L 57.6 41.472 
" style="fill:none;stroke:#ffffff;stroke-linecap:round;stroke-width:0.8;"/>
     </g>
     <g id="text_1">
      <!-- 0 -->
      <defs>
       <path d="M 4.15625 35.296875 
Q 4.15625 48 6.765625 55.734375 
Q 9.375 63.484375 14.515625 67.671875 
Q 19.671875 71.875 27.484375 71.875 
Q 33.25 71.875 37.59375 69.546875 
Q 41.9375 67.234375 44.765625 62.859375 
Q 47.609375 58.5 49.21875 52.21875 
Q 50.828125 45.953125 50.828125 35.296875 
Q 50.828125 22.703125 48.234375 14.96875 
Q 45.65625 7.234375 40.5 3 
Q 35.359375 -1.21875 27.484375 -1.21875 
Q 17.140625 -1.21875 11.234375 6.203125 
Q 4.15625 15.140625 4.15625 35.296875 
z
M 13.1875 35.296875 
Q 13.1875 17.671875 17.3125 11.828125 
Q 21.4375 6 27.484375 6 
Q 33.546875 6 37.671875 11.859375 
Q 41.796875 17.71875 41.796875 35.296875 
Q 41.796875 52.984375 37.671875 58.78125 
Q 33.546875 64.59375 27.390625 64.59375 
Q 21.34375 64.59375 17.71875 59.46875 
Q 13.1875 52.9375 13.1875 35.296875 
z
" id="ArialMT-48"/>
      </defs>
      <g style="fill:#262626;" transform="translate(54.819531 321.741812)scale(0.1 -0.1)">
       <use xlink:href="#ArialMT-48"/>
      </g>
     </g>
    </g>
    <g id="xtick_2">
     <g id="line2d_2">
      <path clip-path="url(#p2865110eaf)" d="M 129.024 307.584 
L 129.024 41.472 
" style="fill:none;stroke:#ffffff;stroke-linecap:round;stroke-width:0.8;"/>
     </g>
     <g id="text_2">
      <!-- 5 -->
      <defs>
       <path d="M 4.15625 18.75 
L 13.375 19.53125 
Q 14.40625 12.796875 18.140625 9.390625 
Q 21.875 6 27.15625 6 
Q 33.5 6 37.890625 10.78125 
Q 42.28125 15.578125 42.28125 23.484375 
Q 42.28125 31 38.0625 35.34375 
Q 33.84375 39.703125 27 39.703125 
Q 22.75 39.703125 19.328125 37.765625 
Q 15.921875 35.84375 13.96875 32.765625 
L 5.71875 33.84375 
L 12.640625 70.609375 
L 48.25 70.609375 
L 48.25 62.203125 
L 19.671875 62.203125 
L 15.828125 42.96875 
Q 22.265625 47.46875 29.34375 47.46875 
Q 38.71875 47.46875 45.15625 40.96875 
Q 51.609375 34.46875 51.609375 24.265625 
Q 51.609375 14.546875 45.953125 7.46875 
Q 39.0625 -1.21875 27.15625 -1.21875 
Q 17.390625 -1.21875 11.203125 4.25 
Q 5.03125 9.71875 4.15625 18.75 
z
" id="ArialMT-53"/>
      </defs>
      <g style="fill:#262626;" transform="translate(126.243531 321.741812)scale(0.1 -0.1)">
       <use xlink:href="#ArialMT-53"/>
      </g>
     </g>
    </g>
    <g id="xtick_3">
     <g id="line2d_3">
      <path clip-path="url(#p2865110eaf)" d="M 200.448 307.584 
L 200.448 41.472 
" style="fill:none;stroke:#ffffff;stroke-linecap:round;stroke-width:0.8;"/>
     </g>
     <g id="text_3">
      <!-- 10 -->
      <defs>
       <path d="M 37.25 0 
L 28.46875 0 
L 28.46875 56 
Q 25.296875 52.984375 20.140625 49.953125 
Q 14.984375 46.921875 10.890625 45.40625 
L 10.890625 53.90625 
Q 18.265625 57.375 23.78125 62.296875 
Q 29.296875 67.234375 31.59375 71.875 
L 37.25 71.875 
z
" id="ArialMT-49"/>
      </defs>
      <g style="fill:#262626;" transform="translate(194.887063 321.741812)scale(0.1 -0.1)">
       <use xlink:href="#ArialMT-49"/>
       <use x="55.615234" xlink:href="#ArialMT-48"/>
      </g>
     </g>
    </g>
    <g id="xtick_4">
     <g id="line2d_4">
      <path clip-path="url(#p2865110eaf)" d="M 271.872 307.584 
L 271.872 41.472 
" style="fill:none;stroke:#ffffff;stroke-linecap:round;stroke-width:0.8;"/>
     </g>
     <g id="text_4">
      <!-- 15 -->
      <g style="fill:#262626;" transform="translate(266.311062 321.741812)scale(0.1 -0.1)">
       <use xlink:href="#ArialMT-49"/>
       <use x="55.615234" xlink:href="#ArialMT-53"/>
      </g>
     </g>
    </g>
    <g id="xtick_5">
     <g id="line2d_5">
      <path clip-path="url(#p2865110eaf)" d="M 343.296 307.584 
L 343.296 41.472 
" style="fill:none;stroke:#ffffff;stroke-linecap:round;stroke-width:0.8;"/>
     </g>
     <g id="text_5">
      <!-- 20 -->
      <defs>
       <path d="M 50.34375 8.453125 
L 50.34375 0 
L 3.03125 0 
Q 2.9375 3.171875 4.046875 6.109375 
Q 5.859375 10.9375 9.828125 15.625 
Q 13.8125 20.3125 21.34375 26.46875 
Q 33.015625 36.03125 37.109375 41.625 
Q 41.21875 47.21875 41.21875 52.203125 
Q 41.21875 57.421875 37.46875 61 
Q 33.734375 64.59375 27.734375 64.59375 
Q 21.390625 64.59375 17.578125 60.78125 
Q 13.765625 56.984375 13.71875 50.25 
L 4.6875 51.171875 
Q 5.609375 61.28125 11.65625 66.578125 
Q 17.71875 71.875 27.9375 71.875 
Q 38.234375 71.875 44.234375 66.15625 
Q 50.25 60.453125 50.25 52 
Q 50.25 47.703125 48.484375 43.546875 
Q 46.734375 39.40625 42.65625 34.8125 
Q 38.578125 30.21875 29.109375 22.21875 
Q 21.1875 15.578125 18.9375 13.203125 
Q 16.703125 10.84375 15.234375 8.453125 
z
" id="ArialMT-50"/>
      </defs>
      <g style="fill:#262626;" transform="translate(337.735063 321.741812)scale(0.1 -0.1)">
       <use xlink:href="#ArialMT-50"/>
       <use x="55.615234" xlink:href="#ArialMT-48"/>
      </g>
     </g>
    </g>
    <g id="xtick_6">
     <g id="line2d_6">
      <path clip-path="url(#p2865110eaf)" d="M 414.72 307.584 
L 414.72 41.472 
" style="fill:none;stroke:#ffffff;stroke-linecap:round;stroke-width:0.8;"/>
     </g>
     <g id="text_6">
      <!-- 25 -->
      <g style="fill:#262626;" transform="translate(409.159063 321.741812)scale(0.1 -0.1)">
       <use xlink:href="#ArialMT-50"/>
       <use x="55.615234" xlink:href="#ArialMT-53"/>
      </g>
     </g>
    </g>
    <g id="text_7">
     <!-- Velocity (m/s) -->
     <defs>
      <path d="M 28.171875 0 
L 0.4375 71.578125 
L 10.6875 71.578125 
L 29.296875 19.578125 
Q 31.546875 13.328125 33.0625 7.859375 
Q 34.71875 13.71875 36.921875 19.578125 
L 56.25 71.578125 
L 65.921875 71.578125 
L 37.890625 0 
z
" id="ArialMT-86"/>
      <path d="M 42.09375 16.703125 
L 51.171875 15.578125 
Q 49.03125 7.625 43.21875 3.21875 
Q 37.40625 -1.171875 28.375 -1.171875 
Q 17 -1.171875 10.328125 5.828125 
Q 3.65625 12.84375 3.65625 25.484375 
Q 3.65625 38.578125 10.390625 45.796875 
Q 17.140625 53.03125 27.875 53.03125 
Q 38.28125 53.03125 44.875 45.953125 
Q 51.46875 38.875 51.46875 26.03125 
Q 51.46875 25.25 51.421875 23.6875 
L 12.75 23.6875 
Q 13.234375 15.140625 17.578125 10.59375 
Q 21.921875 6.0625 28.421875 6.0625 
Q 33.25 6.0625 36.671875 8.59375 
Q 40.09375 11.140625 42.09375 16.703125 
z
M 13.234375 30.90625 
L 42.1875 30.90625 
Q 41.609375 37.453125 38.875 40.71875 
Q 34.671875 45.796875 27.984375 45.796875 
Q 21.921875 45.796875 17.796875 41.75 
Q 13.671875 37.703125 13.234375 30.90625 
z
" id="ArialMT-101"/>
      <path d="M 6.390625 0 
L 6.390625 71.578125 
L 15.1875 71.578125 
L 15.1875 0 
z
" id="ArialMT-108"/>
      <path d="M 3.328125 25.921875 
Q 3.328125 40.328125 11.328125 47.265625 
Q 18.015625 53.03125 27.640625 53.03125 
Q 38.328125 53.03125 45.109375 46.015625 
Q 51.90625 39.015625 51.90625 26.65625 
Q 51.90625 16.65625 48.90625 10.90625 
Q 45.90625 5.171875 40.15625 2 
Q 34.421875 -1.171875 27.640625 -1.171875 
Q 16.75 -1.171875 10.03125 5.8125 
Q 3.328125 12.796875 3.328125 25.921875 
z
M 12.359375 25.921875 
Q 12.359375 15.96875 16.703125 11.015625 
Q 21.046875 6.0625 27.640625 6.0625 
Q 34.1875 6.0625 38.53125 11.03125 
Q 42.875 16.015625 42.875 26.21875 
Q 42.875 35.84375 38.5 40.796875 
Q 34.125 45.75 27.640625 45.75 
Q 21.046875 45.75 16.703125 40.8125 
Q 12.359375 35.890625 12.359375 25.921875 
z
" id="ArialMT-111"/>
      <path d="M 40.4375 19 
L 49.078125 17.875 
Q 47.65625 8.9375 41.8125 3.875 
Q 35.984375 -1.171875 27.484375 -1.171875 
Q 16.84375 -1.171875 10.375 5.78125 
Q 3.90625 12.75 3.90625 25.734375 
Q 3.90625 34.125 6.6875 40.421875 
Q 9.46875 46.734375 15.15625 49.875 
Q 20.84375 53.03125 27.546875 53.03125 
Q 35.984375 53.03125 41.359375 48.75 
Q 46.734375 44.484375 48.25 36.625 
L 39.703125 35.296875 
Q 38.484375 40.53125 35.375 43.15625 
Q 32.28125 45.796875 27.875 45.796875 
Q 21.234375 45.796875 17.078125 41.03125 
Q 12.9375 36.28125 12.9375 25.984375 
Q 12.9375 15.53125 16.9375 10.796875 
Q 20.953125 6.0625 27.390625 6.0625 
Q 32.5625 6.0625 36.03125 9.234375 
Q 39.5 12.40625 40.4375 19 
z
" id="ArialMT-99"/>
      <path d="M 6.640625 61.46875 
L 6.640625 71.578125 
L 15.4375 71.578125 
L 15.4375 61.46875 
z
M 6.640625 0 
L 6.640625 51.859375 
L 15.4375 51.859375 
L 15.4375 0 
z
" id="ArialMT-105"/>
      <path d="M 25.78125 7.859375 
L 27.046875 0.09375 
Q 23.34375 -0.6875 20.40625 -0.6875 
Q 15.625 -0.6875 12.984375 0.828125 
Q 10.359375 2.34375 9.28125 4.8125 
Q 8.203125 7.28125 8.203125 15.1875 
L 8.203125 45.015625 
L 1.765625 45.015625 
L 1.765625 51.859375 
L 8.203125 51.859375 
L 8.203125 64.703125 
L 16.9375 69.96875 
L 16.9375 51.859375 
L 25.78125 51.859375 
L 25.78125 45.015625 
L 16.9375 45.015625 
L 16.9375 14.703125 
Q 16.9375 10.9375 17.40625 9.859375 
Q 17.875 8.796875 18.921875 8.15625 
Q 19.96875 7.515625 21.921875 7.515625 
Q 23.390625 7.515625 25.78125 7.859375 
z
" id="ArialMT-116"/>
      <path d="M 6.203125 -19.96875 
L 5.21875 -11.71875 
Q 8.109375 -12.5 10.25 -12.5 
Q 13.1875 -12.5 14.9375 -11.515625 
Q 16.703125 -10.546875 17.828125 -8.796875 
Q 18.65625 -7.46875 20.515625 -2.25 
Q 20.75 -1.515625 21.296875 -0.09375 
L 1.609375 51.859375 
L 11.078125 51.859375 
L 21.875 21.828125 
Q 23.96875 16.109375 25.640625 9.8125 
Q 27.15625 15.875 29.25 21.625 
L 40.328125 51.859375 
L 49.125 51.859375 
L 29.390625 -0.875 
Q 26.21875 -9.421875 24.46875 -12.640625 
Q 22.125 -17 19.09375 -19.015625 
Q 16.0625 -21.046875 11.859375 -21.046875 
Q 9.328125 -21.046875 6.203125 -19.96875 
z
" id="ArialMT-121"/>
      <path id="ArialMT-32"/>
      <path d="M 23.390625 -21.046875 
Q 16.109375 -11.859375 11.078125 0.4375 
Q 6.0625 12.75 6.0625 25.921875 
Q 6.0625 37.546875 9.8125 48.1875 
Q 14.203125 60.546875 23.390625 72.796875 
L 29.6875 72.796875 
Q 23.78125 62.640625 21.875 58.296875 
Q 18.890625 51.5625 17.1875 44.234375 
Q 15.09375 35.109375 15.09375 25.875 
Q 15.09375 2.390625 29.6875 -21.046875 
z
" id="ArialMT-40"/>
      <path d="M 6.59375 0 
L 6.59375 51.859375 
L 14.453125 51.859375 
L 14.453125 44.578125 
Q 16.890625 48.390625 20.9375 50.703125 
Q 25 53.03125 30.171875 53.03125 
Q 35.9375 53.03125 39.625 50.640625 
Q 43.3125 48.25 44.828125 43.953125 
Q 50.984375 53.03125 60.84375 53.03125 
Q 68.5625 53.03125 72.703125 48.75 
Q 76.859375 44.484375 76.859375 35.59375 
L 76.859375 0 
L 68.109375 0 
L 68.109375 32.671875 
Q 68.109375 37.9375 67.25 40.25 
Q 66.40625 42.578125 64.15625 43.984375 
Q 61.921875 45.40625 58.890625 45.40625 
Q 53.421875 45.40625 49.796875 41.765625 
Q 46.1875 38.140625 46.1875 30.125 
L 46.1875 0 
L 37.40625 0 
L 37.40625 33.6875 
Q 37.40625 39.546875 35.25 42.46875 
Q 33.109375 45.40625 28.21875 45.40625 
Q 24.515625 45.40625 21.359375 43.453125 
Q 18.21875 41.5 16.796875 37.734375 
Q 15.375 33.984375 15.375 26.90625 
L 15.375 0 
z
" id="ArialMT-109"/>
      <path d="M 0 -1.21875 
L 20.75 72.796875 
L 27.78125 72.796875 
L 7.078125 -1.21875 
z
" id="ArialMT-47"/>
      <path d="M 3.078125 15.484375 
L 11.765625 16.84375 
Q 12.5 11.625 15.84375 8.84375 
Q 19.1875 6.0625 25.203125 6.0625 
Q 31.25 6.0625 34.171875 8.515625 
Q 37.109375 10.984375 37.109375 14.3125 
Q 37.109375 17.28125 34.515625 19 
Q 32.71875 20.171875 25.53125 21.96875 
Q 15.875 24.421875 12.140625 26.203125 
Q 8.40625 27.984375 6.46875 31.125 
Q 4.546875 34.28125 4.546875 38.09375 
Q 4.546875 41.546875 6.125 44.5 
Q 7.71875 47.46875 10.453125 49.421875 
Q 12.5 50.921875 16.03125 51.96875 
Q 19.578125 53.03125 23.640625 53.03125 
Q 29.734375 53.03125 34.34375 51.265625 
Q 38.96875 49.515625 41.15625 46.5 
Q 43.359375 43.5 44.1875 38.484375 
L 35.59375 37.3125 
Q 35.015625 41.3125 32.203125 43.546875 
Q 29.390625 45.796875 24.265625 45.796875 
Q 18.21875 45.796875 15.625 43.796875 
Q 13.03125 41.796875 13.03125 39.109375 
Q 13.03125 37.40625 14.109375 36.03125 
Q 15.1875 34.625 17.484375 33.6875 
Q 18.796875 33.203125 25.25 31.453125 
Q 34.578125 28.953125 38.25 27.359375 
Q 41.9375 25.78125 44.03125 22.75 
Q 46.140625 19.734375 46.140625 15.234375 
Q 46.140625 10.84375 43.578125 6.953125 
Q 41.015625 3.078125 36.171875 0.953125 
Q 31.34375 -1.171875 25.25 -1.171875 
Q 15.140625 -1.171875 9.84375 3.03125 
Q 4.546875 7.234375 3.078125 15.484375 
z
" id="ArialMT-115"/>
      <path d="M 12.359375 -21.046875 
L 6.0625 -21.046875 
Q 20.65625 2.390625 20.65625 25.875 
Q 20.65625 35.0625 18.5625 44.09375 
Q 16.890625 51.421875 13.921875 58.15625 
Q 12.015625 62.546875 6.0625 72.796875 
L 12.359375 72.796875 
Q 21.53125 60.546875 25.921875 48.1875 
Q 29.6875 37.546875 29.6875 25.921875 
Q 29.6875 12.75 24.625 0.4375 
Q 19.578125 -11.859375 12.359375 -21.046875 
z
" id="ArialMT-41"/>
     </defs>
     <g style="fill:#262626;" transform="translate(193.773906 337.920875)scale(0.14 -0.14)">
      <use xlink:href="#ArialMT-86"/>
      <use x="66.621094" xlink:href="#ArialMT-101"/>
      <use x="122.236328" xlink:href="#ArialMT-108"/>
      <use x="144.453125" xlink:href="#ArialMT-111"/>
      <use x="200.068359" xlink:href="#ArialMT-99"/>
      <use x="250.068359" xlink:href="#ArialMT-105"/>
      <use x="272.285156" xlink:href="#ArialMT-116"/>
      <use x="300.068359" xlink:href="#ArialMT-121"/>
      <use x="350.068359" xlink:href="#ArialMT-32"/>
      <use x="377.851562" xlink:href="#ArialMT-40"/>
      <use x="411.152344" xlink:href="#ArialMT-109"/>
      <use x="494.453125" xlink:href="#ArialMT-47"/>
      <use x="522.236328" xlink:href="#ArialMT-115"/>
      <use x="572.236328" xlink:href="#ArialMT-41"/>
     </g>
    </g>
   </g>
   <g id="matplotlib.axis_2">
    <g id="ytick_1">
     <g id="line2d_7">
      <path clip-path="url(#p2865110eaf)" d="M 57.6 307.584 
L 414.72 307.584 
" style="fill:none;stroke:#ffffff;stroke-linecap:round;stroke-width:0.8;"/>
     </g>
     <g id="text_8">
      <!-- −5 -->
      <defs>
       <path d="M 52.828125 31.203125 
L 5.5625 31.203125 
L 5.5625 39.40625 
L 52.828125 39.40625 
z
" id="ArialMT-8722"/>
      </defs>
      <g style="fill:#262626;" transform="translate(39.198437 311.162906)scale(0.1 -0.1)">
       <use xlink:href="#ArialMT-8722"/>
       <use x="58.398438" xlink:href="#ArialMT-53"/>
      </g>
     </g>
    </g>
    <g id="ytick_2">
     <g id="line2d_8">
      <path clip-path="url(#p2865110eaf)" d="M 57.6 280.9728 
L 414.72 280.9728 
" style="fill:none;stroke:#ffffff;stroke-linecap:round;stroke-width:0.8;"/>
     </g>
     <g id="text_9">
      <!-- −4 -->
      <defs>
       <path d="M 32.328125 0 
L 32.328125 17.140625 
L 1.265625 17.140625 
L 1.265625 25.203125 
L 33.9375 71.578125 
L 41.109375 71.578125 
L 41.109375 25.203125 
L 50.78125 25.203125 
L 50.78125 17.140625 
L 41.109375 17.140625 
L 41.109375 0 
z
M 32.328125 25.203125 
L 32.328125 57.46875 
L 9.90625 25.203125 
z
" id="ArialMT-52"/>
      </defs>
      <g style="fill:#262626;" transform="translate(39.198437 284.551706)scale(0.1 -0.1)">
       <use xlink:href="#ArialMT-8722"/>
       <use x="58.398438" xlink:href="#ArialMT-52"/>
      </g>
     </g>
    </g>
    <g id="ytick_3">
     <g id="line2d_9">
      <path clip-path="url(#p2865110eaf)" d="M 57.6 254.3616 
L 414.72 254.3616 
" style="fill:none;stroke:#ffffff;stroke-linecap:round;stroke-width:0.8;"/>
     </g>
     <g id="text_10">
      <!-- −3 -->
      <defs>
       <path d="M 4.203125 18.890625 
L 12.984375 20.0625 
Q 14.5 12.59375 18.140625 9.296875 
Q 21.78125 6 27 6 
Q 33.203125 6 37.46875 10.296875 
Q 41.75 14.59375 41.75 20.953125 
Q 41.75 27 37.796875 30.921875 
Q 33.84375 34.859375 27.734375 34.859375 
Q 25.25 34.859375 21.53125 33.890625 
L 22.515625 41.609375 
Q 23.390625 41.5 23.921875 41.5 
Q 29.546875 41.5 34.03125 44.421875 
Q 38.53125 47.359375 38.53125 53.46875 
Q 38.53125 58.296875 35.25 61.46875 
Q 31.984375 64.65625 26.8125 64.65625 
Q 21.6875 64.65625 18.265625 61.421875 
Q 14.84375 58.203125 13.875 51.765625 
L 5.078125 53.328125 
Q 6.6875 62.15625 12.390625 67.015625 
Q 18.109375 71.875 26.609375 71.875 
Q 32.46875 71.875 37.390625 69.359375 
Q 42.328125 66.84375 44.9375 62.5 
Q 47.5625 58.15625 47.5625 53.265625 
Q 47.5625 48.640625 45.0625 44.828125 
Q 42.578125 41.015625 37.703125 38.765625 
Q 44.046875 37.3125 47.5625 32.6875 
Q 51.078125 28.078125 51.078125 21.140625 
Q 51.078125 11.765625 44.234375 5.25 
Q 37.40625 -1.265625 26.953125 -1.265625 
Q 17.53125 -1.265625 11.296875 4.34375 
Q 5.078125 9.96875 4.203125 18.890625 
z
" id="ArialMT-51"/>
      </defs>
      <g style="fill:#262626;" transform="translate(39.198437 257.940506)scale(0.1 -0.1)">
       <use xlink:href="#ArialMT-8722"/>
       <use x="58.398438" xlink:href="#ArialMT-51"/>
      </g>
     </g>
    </g>
    <g id="ytick_4">
     <g id="line2d_10">
      <path clip-path="url(#p2865110eaf)" d="M 57.6 227.7504 
L 414.72 227.7504 
" style="fill:none;stroke:#ffffff;stroke-linecap:round;stroke-width:0.8;"/>
     </g>
     <g id="text_11">
      <!-- −2 -->
      <g style="fill:#262626;" transform="translate(39.198437 231.329306)scale(0.1 -0.1)">
       <use xlink:href="#ArialMT-8722"/>
       <use x="58.398438" xlink:href="#ArialMT-50"/>
      </g>
     </g>
    </g>
    <g id="ytick_5">
     <g id="line2d_11">
      <path clip-path="url(#p2865110eaf)" d="M 57.6 201.1392 
L 414.72 201.1392 
" style="fill:none;stroke:#ffffff;stroke-linecap:round;stroke-width:0.8;"/>
     </g>
     <g id="text_12">
      <!-- −1 -->
      <g style="fill:#262626;" transform="translate(39.198437 204.718106)scale(0.1 -0.1)">
       <use xlink:href="#ArialMT-8722"/>
       <use x="58.398438" xlink:href="#ArialMT-49"/>
      </g>
     </g>
    </g>
    <g id="ytick_6">
     <g id="line2d_12">
      <path clip-path="url(#p2865110eaf)" d="M 57.6 174.528 
L 414.72 174.528 
" style="fill:none;stroke:#ffffff;stroke-linecap:round;stroke-width:0.8;"/>
     </g>
     <g id="text_13">
      <!-- 0 -->
      <g style="fill:#262626;" transform="translate(45.039062 178.106906)scale(0.1 -0.1)">
       <use xlink:href="#ArialMT-48"/>
      </g>
     </g>
    </g>
    <g id="ytick_7">
     <g id="line2d_13">
      <path clip-path="url(#p2865110eaf)" d="M 57.6 147.9168 
L 414.72 147.9168 
" style="fill:none;stroke:#ffffff;stroke-linecap:round;stroke-width:0.8;"/>
     </g>
     <g id="text_14">
      <!-- 1 -->
      <g style="fill:#262626;" transform="translate(45.039062 151.495706)scale(0.1 -0.1)">
       <use xlink:href="#ArialMT-49"/>
      </g>
     </g>
    </g>
    <g id="ytick_8">
     <g id="line2d_14">
      <path clip-path="url(#p2865110eaf)" d="M 57.6 121.3056 
L 414.72 121.3056 
" style="fill:none;stroke:#ffffff;stroke-linecap:round;stroke-width:0.8;"/>
     </g>
     <g id="text_15">
      <!-- 2 -->
      <g style="fill:#262626;" transform="translate(45.039062 124.884506)scale(0.1 -0.1)">
       <use xlink:href="#ArialMT-50"/>
      </g>
     </g>
    </g>
    <g id="ytick_9">
     <g id="line2d_15">
      <path clip-path="url(#p2865110eaf)" d="M 57.6 94.6944 
L 414.72 94.6944 
" style="fill:none;stroke:#ffffff;stroke-linecap:round;stroke-width:0.8;"/>
     </g>
     <g id="text_16">
      <!-- 3 -->
      <g style="fill:#262626;" transform="translate(45.039062 98.273306)scale(0.1 -0.1)">
       <use xlink:href="#ArialMT-51"/>
      </g>
     </g>
    </g>
    <g id="ytick_10">
     <g id="line2d_16">
      <path clip-path="url(#p2865110eaf)" d="M 57.6 68.0832 
L 414.72 68.0832 
" style="fill:none;stroke:#ffffff;stroke-linecap:round;stroke-width:0.8;"/>
     </g>
     <g id="text_17">
      <!-- 4 -->
      <g style="fill:#262626;" transform="translate(45.039062 71.662106)scale(0.1 -0.1)">
       <use xlink:href="#ArialMT-52"/>
      </g>
     </g>
    </g>
    <g id="ytick_11">
     <g id="line2d_17">
      <path clip-path="url(#p2865110eaf)" d="M 57.6 41.472 
L 414.72 41.472 
" style="fill:none;stroke:#ffffff;stroke-linecap:round;stroke-width:0.8;"/>
     </g>
     <g id="text_18">
      <!-- 5 -->
      <g style="fill:#262626;" transform="translate(45.039062 45.050906)scale(0.1 -0.1)">
       <use xlink:href="#ArialMT-53"/>
      </g>
     </g>
    </g>
    <g id="text_19">
     <!-- Load Factor ($n$) -->
     <defs>
      <path d="M 7.328125 0 
L 7.328125 71.578125 
L 16.796875 71.578125 
L 16.796875 8.453125 
L 52.046875 8.453125 
L 52.046875 0 
z
" id="ArialMT-76"/>
      <path d="M 40.4375 6.390625 
Q 35.546875 2.25 31.03125 0.53125 
Q 26.515625 -1.171875 21.34375 -1.171875 
Q 12.796875 -1.171875 8.203125 3 
Q 3.609375 7.171875 3.609375 13.671875 
Q 3.609375 17.484375 5.34375 20.625 
Q 7.078125 23.78125 9.890625 25.6875 
Q 12.703125 27.59375 16.21875 28.5625 
Q 18.796875 29.25 24.03125 29.890625 
Q 34.671875 31.15625 39.703125 32.90625 
Q 39.75 34.71875 39.75 35.203125 
Q 39.75 40.578125 37.25 42.78125 
Q 33.890625 45.75 27.25 45.75 
Q 21.046875 45.75 18.09375 43.578125 
Q 15.140625 41.40625 13.71875 35.890625 
L 5.125 37.0625 
Q 6.296875 42.578125 8.984375 45.96875 
Q 11.671875 49.359375 16.75 51.1875 
Q 21.828125 53.03125 28.515625 53.03125 
Q 35.15625 53.03125 39.296875 51.46875 
Q 43.453125 49.90625 45.40625 47.53125 
Q 47.359375 45.171875 48.140625 41.546875 
Q 48.578125 39.3125 48.578125 33.453125 
L 48.578125 21.734375 
Q 48.578125 9.46875 49.140625 6.21875 
Q 49.703125 2.984375 51.375 0 
L 42.1875 0 
Q 40.828125 2.734375 40.4375 6.390625 
z
M 39.703125 26.03125 
Q 34.90625 24.078125 25.34375 22.703125 
Q 19.921875 21.921875 17.671875 20.9375 
Q 15.4375 19.96875 14.203125 18.09375 
Q 12.984375 16.21875 12.984375 13.921875 
Q 12.984375 10.40625 15.640625 8.0625 
Q 18.3125 5.71875 23.4375 5.71875 
Q 28.515625 5.71875 32.46875 7.9375 
Q 36.421875 10.15625 38.28125 14.015625 
Q 39.703125 17 39.703125 22.796875 
z
" id="ArialMT-97"/>
      <path d="M 40.234375 0 
L 40.234375 6.546875 
Q 35.296875 -1.171875 25.734375 -1.171875 
Q 19.53125 -1.171875 14.328125 2.25 
Q 9.125 5.671875 6.265625 11.796875 
Q 3.421875 17.921875 3.421875 25.875 
Q 3.421875 33.640625 6 39.96875 
Q 8.59375 46.296875 13.765625 49.65625 
Q 18.953125 53.03125 25.34375 53.03125 
Q 30.03125 53.03125 33.6875 51.046875 
Q 37.359375 49.078125 39.65625 45.90625 
L 39.65625 71.578125 
L 48.390625 71.578125 
L 48.390625 0 
z
M 12.453125 25.875 
Q 12.453125 15.921875 16.640625 10.984375 
Q 20.84375 6.0625 26.5625 6.0625 
Q 32.328125 6.0625 36.34375 10.765625 
Q 40.375 15.484375 40.375 25.140625 
Q 40.375 35.796875 36.265625 40.765625 
Q 32.171875 45.75 26.171875 45.75 
Q 20.3125 45.75 16.375 40.96875 
Q 12.453125 36.1875 12.453125 25.875 
z
" id="ArialMT-100"/>
      <path d="M 8.203125 0 
L 8.203125 71.578125 
L 56.5 71.578125 
L 56.5 63.140625 
L 17.671875 63.140625 
L 17.671875 40.96875 
L 51.265625 40.96875 
L 51.265625 32.515625 
L 17.671875 32.515625 
L 17.671875 0 
z
" id="ArialMT-70"/>
      <path d="M 6.5 0 
L 6.5 51.859375 
L 14.40625 51.859375 
L 14.40625 44 
Q 17.4375 49.515625 20 51.265625 
Q 22.5625 53.03125 25.640625 53.03125 
Q 30.078125 53.03125 34.671875 50.203125 
L 31.640625 42.046875 
Q 28.421875 43.953125 25.203125 43.953125 
Q 22.3125 43.953125 20.015625 42.21875 
Q 17.71875 40.484375 16.75 37.40625 
Q 15.28125 32.71875 15.28125 27.15625 
L 15.28125 0 
z
" id="ArialMT-114"/>
      <path d="M 55.71875 33.015625 
L 49.3125 0 
L 40.28125 0 
L 46.6875 32.671875 
Q 47.125 34.96875 47.359375 36.71875 
Q 47.609375 38.484375 47.609375 39.5 
Q 47.609375 43.609375 45.015625 45.890625 
Q 42.4375 48.1875 37.796875 48.1875 
Q 30.5625 48.1875 25.34375 43.375 
Q 20.125 38.578125 18.5 30.328125 
L 12.5 0 
L 3.515625 0 
L 14.109375 54.6875 
L 23.09375 54.6875 
L 21.296875 46.09375 
Q 25.046875 50.828125 30.3125 53.40625 
Q 35.59375 56 41.40625 56 
Q 48.640625 56 52.609375 52.09375 
Q 56.59375 48.1875 56.59375 41.109375 
Q 56.59375 39.359375 56.375 37.359375 
Q 56.15625 35.359375 55.71875 33.015625 
z
" id="DejaVuSans-Oblique-110"/>
     </defs>
     <g style="fill:#262626;" transform="translate(32.118437 222.968)rotate(-90)scale(0.14 -0.14)">
      <use transform="translate(0 0.203125)" xlink:href="#ArialMT-76"/>
      <use transform="translate(55.615234 0.203125)" xlink:href="#ArialMT-111"/>
      <use transform="translate(111.230469 0.203125)" xlink:href="#ArialMT-97"/>
      <use transform="translate(166.845703 0.203125)" xlink:href="#ArialMT-100"/>
      <use transform="translate(222.460938 0.203125)" xlink:href="#ArialMT-32"/>
      <use transform="translate(250.244141 0.203125)" xlink:href="#ArialMT-70"/>
      <use transform="translate(311.328125 0.203125)" xlink:href="#ArialMT-97"/>
      <use transform="translate(366.943359 0.203125)" xlink:href="#ArialMT-99"/>
      <use transform="translate(416.943359 0.203125)" xlink:href="#ArialMT-116"/>
      <use transform="translate(444.726562 0.203125)" xlink:href="#ArialMT-111"/>
      <use transform="translate(500.341797 0.203125)" xlink:href="#ArialMT-114"/>
      <use transform="translate(533.642578 0.203125)" xlink:href="#ArialMT-32"/>
      <use transform="translate(561.425781 0.203125)" xlink:href="#ArialMT-40"/>
      <use transform="translate(594.726562 0.203125)" xlink:href="#DejaVuSans-Oblique-110"/>
      <use transform="translate(658.105469 0.203125)" xlink:href="#ArialMT-41"/>
     </g>
    </g>
   </g>
   <g id="LineCollection_1">
    <path clip-path="url(#p2865110eaf)" d="M 57.6 174.528 
L 461.8 174.528 
" style="fill:none;stroke:#000000;stroke-width:0.5;"/>
   </g>
   <g id="line2d_18">
    <path clip-path="url(#p2865110eaf)" d="M 57.6 174.528 
L 62.763181 174.414719 
L 67.926361 174.074878 
L 73.089542 173.508475 
L 78.252723 172.715511 
L 83.415904 171.695987 
L 88.579084 170.449901 
L 93.742265 168.977254 
L 98.905446 167.278046 
L 104.068627 165.352277 
L 109.231807 163.199947 
L 114.394988 160.821055 
L 119.558169 158.215603 
L 124.721349 155.38359 
L 129.88453 152.325015 
L 135.047711 149.03988 
L 140.210892 145.528183 
L 145.374072 141.789926 
L 150.537253 137.825107 
L 155.700434 133.633727 
L 160.863614 129.215787 
L 166.026795 124.571285 
L 172.911036 118.026187 
L 179.795277 111.078314 
L 186.679518 103.727666 
L 193.563759 95.974243 
L 200.448 87.818045 
L 207.332241 79.259071 
L 214.216482 70.297322 
L 221.100723 60.932798 
L 227.984964 51.165499 
L 234.869205 40.995424 
L 241.753446 30.422574 
L 248.637687 19.446949 
L 255.521928 8.068549 
L 260.84113 -1 
L 260.84113 -1 
" style="fill:none;stroke:#ff0000;stroke-linecap:round;"/>
   </g>
   <g id="line2d_19">
    <path clip-path="url(#p2865110eaf)" d="M 57.6 174.528 
L 62.763181 174.426048 
L 67.926361 174.12019 
L 73.089542 173.610428 
L 78.252723 172.89676 
L 83.415904 171.979188 
L 88.579084 170.857711 
L 93.742265 169.532328 
L 98.905446 168.003041 
L 104.068627 166.269849 
L 109.231807 164.332752 
L 114.394988 162.19175 
L 119.558169 159.846843 
L 124.721349 157.298031 
L 129.88453 154.545314 
L 135.047711 151.588692 
L 140.210892 148.428165 
L 145.374072 145.063733 
L 150.537253 141.495396 
L 157.421494 136.420428 
L 164.305735 130.982963 
L 171.189976 125.183 
L 178.074217 119.020538 
L 184.958458 112.49558 
L 191.842699 105.608123 
L 198.72694 98.358169 
L 205.611181 90.745717 
L 212.495422 82.770768 
L 219.379663 74.43332 
L 226.263904 65.733375 
L 233.148145 56.670933 
L 240.032386 47.245992 
L 246.916627 37.458554 
L 253.800867 27.308618 
L 260.685108 16.796185 
L 267.569349 5.921254 
L 271.833871 -1 
L 271.833871 -1 
" style="fill:none;stroke:#ff0000;stroke-linecap:round;"/>
   </g>
   <g id="line2d_20">
    <path clip-path="url(#p2865110eaf)" d="M 57.6 174.528 
L 62.763181 174.437376 
L 67.926361 174.165502 
L 73.089542 173.71238 
L 78.252723 173.078009 
L 83.415904 172.262389 
L 88.579084 171.265521 
L 93.742265 170.087403 
L 98.905446 168.728037 
L 104.068627 167.187421 
L 109.231807 165.465557 
L 114.394988 163.562444 
L 119.558169 161.478083 
L 124.721349 159.212472 
L 131.60559 155.909715 
L 138.489831 152.284738 
L 145.374072 148.337541 
L 152.258313 144.068123 
L 159.142554 139.476486 
L 166.026795 134.562628 
L 172.911036 129.32655 
L 179.795277 123.768252 
L 186.679518 117.887733 
L 193.563759 111.684995 
L 200.448 105.160036 
L 207.332241 98.312857 
L 214.216482 91.143458 
L 221.100723 83.651839 
L 227.984964 75.837999 
L 234.869205 67.701939 
L 241.753446 59.24366 
L 248.637687 50.463159 
L 255.521928 41.360439 
L 262.406169 31.935499 
L 269.29041 22.188338 
L 276.174651 12.118957 
L 283.058892 1.727357 
L 284.830976 -1 
L 284.830976 -1 
" style="fill:none;stroke:#ff0000;stroke-linecap:round;"/>
   </g>
   <g id="line2d_21">
    <path clip-path="url(#p2865110eaf)" d="M 57.6 174.528 
L 64.484241 174.387029 
L 71.368482 173.964115 
L 78.252723 173.259258 
L 85.136964 172.272459 
L 92.021205 171.003717 
L 98.905446 169.453032 
L 105.789687 167.620405 
L 112.673928 165.505835 
L 119.558169 163.109322 
L 126.44241 160.430867 
L 133.326651 157.470469 
L 140.210892 154.228128 
L 147.095133 150.703845 
L 153.979373 146.897619 
L 160.863614 142.809451 
L 167.747855 138.439339 
L 174.632096 133.787285 
L 181.516337 128.853289 
L 188.400578 123.63735 
L 195.284819 118.139468 
L 202.16906 112.359643 
L 209.053301 106.297876 
L 215.937542 99.954166 
L 222.821783 93.328513 
L 229.706024 86.420918 
L 236.590265 79.23138 
L 243.474506 71.7599 
L 250.358747 64.006477 
L 257.242988 55.971111 
L 264.127229 47.653802 
L 272.73253 36.860685 
L 281.337831 25.627032 
L 289.943133 13.952843 
L 298.548434 1.83812 
L 300.519575 -1 
L 300.519575 -1 
" style="fill:none;stroke:#ff0000;stroke-linecap:round;"/>
   </g>
   <g id="line2d_22">
    <path clip-path="url(#p2865110eaf)" d="M 57.6 174.528 
L 64.484241 174.407167 
L 71.368482 174.04467 
L 78.252723 173.440507 
L 85.136964 172.594679 
L 92.021205 171.507186 
L 98.905446 170.178028 
L 105.789687 168.607204 
L 112.673928 166.794716 
L 119.558169 164.740562 
L 126.44241 162.444743 
L 133.326651 159.907259 
L 140.210892 157.12811 
L 147.095133 154.107296 
L 153.979373 150.844816 
L 160.863614 147.340672 
L 167.747855 143.594862 
L 174.632096 139.607387 
L 181.516337 135.378248 
L 188.400578 130.907442 
L 195.284819 126.194972 
L 202.16906 121.240837 
L 209.053301 116.045036 
L 215.937542 110.607571 
L 222.821783 104.92844 
L 229.706024 99.007644 
L 236.590265 92.845183 
L 243.474506 86.441057 
L 252.079807 78.096058 
L 260.685108 69.373457 
L 269.29041 60.273254 
L 277.895711 50.795449 
L 286.501012 40.940043 
L 295.106313 30.707034 
L 303.711614 20.096424 
L 312.316916 9.108213 
L 319.982548 -1 
L 319.982548 -1 
" style="fill:none;stroke:#ff0000;stroke-linecap:round;"/>
   </g>
   <g id="line2d_23">
    <path clip-path="url(#p2865110eaf)" style="fill:none;stroke:#ff0000;stroke-dasharray:14.8,6.4;stroke-dashoffset:0;stroke-width:4;"/>
   </g>
   <g id="line2d_24">
    <path clip-path="url(#p2865110eaf)" style="fill:none;stroke:#ff0000;stroke-dasharray:14.8,6.4;stroke-dashoffset:0;stroke-width:4;"/>
   </g>
   <g id="patch_3">
    <path d="M 57.6 307.584 
L 57.6 41.472 
" style="fill:none;stroke:#ffffff;stroke-linecap:square;stroke-linejoin:miter;stroke-width:0.8;"/>
   </g>
   <g id="patch_4">
    <path d="M 414.72 307.584 
L 414.72 41.472 
" style="fill:none;stroke:#ffffff;stroke-linecap:square;stroke-linejoin:miter;stroke-width:0.8;"/>
   </g>
   <g id="patch_5">
    <path d="M 57.6 307.584 
L 414.72 307.584 
" style="fill:none;stroke:#ffffff;stroke-linecap:square;stroke-linejoin:miter;stroke-width:0.8;"/>
   </g>
   <g id="patch_6">
    <path d="M 57.6 41.472 
L 414.72 41.472 
" style="fill:none;stroke:#ffffff;stroke-linecap:square;stroke-linejoin:miter;stroke-width:0.8;"/>
   </g>
   <g id="text_20">
    <!-- V-n Diagram -->
    <defs>
     <path d="M 3.171875 21.484375 
L 3.171875 30.328125 
L 30.171875 30.328125 
L 30.171875 21.484375 
z
" id="ArialMT-45"/>
     <path d="M 6.59375 0 
L 6.59375 51.859375 
L 14.5 51.859375 
L 14.5 44.484375 
Q 20.21875 53.03125 31 53.03125 
Q 35.6875 53.03125 39.625 51.34375 
Q 43.5625 49.65625 45.515625 46.921875 
Q 47.46875 44.1875 48.25 40.4375 
Q 48.734375 37.984375 48.734375 31.890625 
L 48.734375 0 
L 39.9375 0 
L 39.9375 31.546875 
Q 39.9375 36.921875 38.90625 39.578125 
Q 37.890625 42.234375 35.28125 43.8125 
Q 32.671875 45.40625 29.15625 45.40625 
Q 23.53125 45.40625 19.453125 41.84375 
Q 15.375 38.28125 15.375 28.328125 
L 15.375 0 
z
" id="ArialMT-110"/>
     <path d="M 7.71875 0 
L 7.71875 71.578125 
L 32.375 71.578125 
Q 40.71875 71.578125 45.125 70.5625 
Q 51.265625 69.140625 55.609375 65.4375 
Q 61.28125 60.640625 64.078125 53.1875 
Q 66.890625 45.75 66.890625 36.1875 
Q 66.890625 28.03125 64.984375 21.734375 
Q 63.09375 15.4375 60.109375 11.296875 
Q 57.125 7.171875 53.578125 4.796875 
Q 50.046875 2.4375 45.046875 1.21875 
Q 40.046875 0 33.546875 0 
z
M 17.1875 8.453125 
L 32.46875 8.453125 
Q 39.546875 8.453125 43.578125 9.765625 
Q 47.609375 11.078125 50 13.484375 
Q 53.375 16.84375 55.25 22.53125 
Q 57.125 28.21875 57.125 36.328125 
Q 57.125 47.5625 53.4375 53.59375 
Q 49.75 59.625 44.484375 61.671875 
Q 40.671875 63.140625 32.234375 63.140625 
L 17.1875 63.140625 
z
" id="ArialMT-68"/>
     <path d="M 4.984375 -4.296875 
L 13.53125 -5.5625 
Q 14.0625 -9.515625 16.5 -11.328125 
Q 19.78125 -13.765625 25.4375 -13.765625 
Q 31.546875 -13.765625 34.859375 -11.328125 
Q 38.1875 -8.890625 39.359375 -4.5 
Q 40.046875 -1.8125 39.984375 6.78125 
Q 34.234375 0 25.640625 0 
Q 14.9375 0 9.078125 7.71875 
Q 3.21875 15.4375 3.21875 26.21875 
Q 3.21875 33.640625 5.90625 39.90625 
Q 8.59375 46.1875 13.6875 49.609375 
Q 18.796875 53.03125 25.6875 53.03125 
Q 34.859375 53.03125 40.828125 45.609375 
L 40.828125 51.859375 
L 48.921875 51.859375 
L 48.921875 7.03125 
Q 48.921875 -5.078125 46.453125 -10.125 
Q 44 -15.1875 38.640625 -18.109375 
Q 33.296875 -21.046875 25.484375 -21.046875 
Q 16.21875 -21.046875 10.5 -16.875 
Q 4.78125 -12.703125 4.984375 -4.296875 
z
M 12.25 26.859375 
Q 12.25 16.65625 16.296875 11.96875 
Q 20.359375 7.28125 26.46875 7.28125 
Q 32.515625 7.28125 36.609375 11.9375 
Q 40.71875 16.609375 40.71875 26.5625 
Q 40.71875 36.078125 36.5 40.90625 
Q 32.28125 45.75 26.3125 45.75 
Q 20.453125 45.75 16.34375 40.984375 
Q 12.25 36.234375 12.25 26.859375 
z
" id="ArialMT-103"/>
    </defs>
    <g style="fill:#262626;" transform="translate(191.26625 35.472)scale(0.16 -0.16)">
     <use xlink:href="#ArialMT-86"/>
     <use x="66.621094" xlink:href="#ArialMT-45"/>
     <use x="99.921875" xlink:href="#ArialMT-110"/>
     <use x="155.537109" xlink:href="#ArialMT-32"/>
     <use x="183.320312" xlink:href="#ArialMT-68"/>
     <use x="255.537109" xlink:href="#ArialMT-105"/>
     <use x="277.753906" xlink:href="#ArialMT-97"/>
     <use x="333.369141" xlink:href="#ArialMT-103"/>
     <use x="388.984375" xlink:href="#ArialMT-114"/>
     <use x="422.285156" xlink:href="#ArialMT-97"/>
     <use x="477.900391" xlink:href="#ArialMT-109"/>
    </g>
   </g>
   <g id="legend_1">
    <g id="patch_7">
     <path d="M 335.0019 108.112 
L 408.889 108.112 
Q 410.555 108.112 410.555 106.446 
L 410.555 47.303 
Q 410.555 45.637 408.889 45.637 
L 335.0019 45.637 
Q 333.3359 45.637 333.3359 47.303 
L 333.3359 106.446 
Q 333.3359 108.112 335.0019 108.112 
z
" style="fill:#eaeaf2;opacity:0.8;stroke:#cccccc;stroke-linejoin:miter;"/>
    </g>
    <g id="line2d_25">
     <path d="M 336.6679 52.228113 
L 353.3279 52.228113 
" style="fill:none;stroke:#ff0000;stroke-linecap:round;"/>
    </g>
    <g id="line2d_26"/>
    <g id="text_21">
     <!-- $Cl_{Max}$ -->
     <defs>
      <path d="M 69.484375 67.28125 
L 67.484375 56.890625 
Q 62.796875 61.625 57.546875 63.921875 
Q 52.296875 66.21875 46.1875 66.21875 
Q 37.84375 66.21875 31.515625 62.203125 
Q 25.203125 58.203125 20.609375 50 
Q 17.671875 44.734375 16.125 38.84375 
Q 14.59375 32.953125 14.59375 27 
Q 14.59375 17.046875 19.75 11.8125 
Q 24.90625 6.59375 34.71875 6.59375 
Q 41.5 6.59375 47.75 8.765625 
Q 54 10.9375 59.90625 15.28125 
L 57.625 3.609375 
Q 51.8125 1.125 45.875 -0.140625 
Q 39.9375 -1.421875 33.984375 -1.421875 
Q 19.96875 -1.421875 12.078125 6.1875 
Q 4.203125 13.8125 4.203125 27.390625 
Q 4.203125 36.078125 7.203125 44.46875 
Q 10.203125 52.875 15.828125 59.8125 
Q 21.78125 67.1875 29.421875 70.703125 
Q 37.0625 74.21875 47.21875 74.21875 
Q 53.46875 74.21875 59.0625 72.484375 
Q 64.65625 70.75 69.484375 67.28125 
z
" id="DejaVuSans-Oblique-67"/>
      <path d="M 18.3125 75.984375 
L 27.296875 75.984375 
L 12.5 0 
L 3.515625 0 
z
" id="DejaVuSans-Oblique-108"/>
      <path d="M 16.890625 72.90625 
L 31.6875 72.90625 
L 40.1875 23.78125 
L 68.40625 72.90625 
L 83.59375 72.90625 
L 69.390625 0 
L 59.8125 0 
L 72.21875 63.921875 
L 43.609375 14.015625 
L 33.984375 14.015625 
L 24.703125 64.109375 
L 12.3125 0 
L 2.6875 0 
z
" id="DejaVuSans-Oblique-77"/>
      <path d="M 53.71875 31.203125 
L 47.609375 0 
L 38.625 0 
L 40.28125 8.296875 
Q 36.328125 3.421875 31.265625 1 
Q 26.21875 -1.421875 20.015625 -1.421875 
Q 13.03125 -1.421875 8.5625 2.84375 
Q 4.109375 7.125 4.109375 13.8125 
Q 4.109375 23.390625 11.75 28.953125 
Q 19.390625 34.515625 32.8125 34.515625 
L 45.3125 34.515625 
L 45.796875 36.921875 
Q 45.90625 37.3125 45.953125 37.765625 
Q 46 38.234375 46 39.203125 
Q 46 43.5625 42.453125 45.96875 
Q 38.921875 48.390625 32.515625 48.390625 
Q 28.125 48.390625 23.5 47.265625 
Q 18.890625 46.140625 14.015625 43.890625 
L 15.578125 52.203125 
Q 20.65625 54.109375 25.515625 55.046875 
Q 30.375 56 34.90625 56 
Q 44.578125 56 49.625 51.796875 
Q 54.6875 47.609375 54.6875 39.59375 
Q 54.6875 37.984375 54.4375 35.8125 
Q 54.203125 33.640625 53.71875 31.203125 
z
M 44 27.484375 
L 35.015625 27.484375 
Q 23.96875 27.484375 18.671875 24.53125 
Q 13.375 21.578125 13.375 15.375 
Q 13.375 11.078125 16.078125 8.640625 
Q 18.796875 6.203125 23.578125 6.203125 
Q 30.90625 6.203125 36.375 11.453125 
Q 41.84375 16.703125 43.609375 25.484375 
z
" id="DejaVuSans-Oblique-97"/>
      <path d="M 60.015625 54.6875 
L 34.90625 27.875 
L 50.296875 0 
L 39.984375 0 
L 28.421875 21.6875 
L 8.296875 0 
L -2.59375 0 
L 24.3125 28.8125 
L 10.015625 54.6875 
L 20.3125 54.6875 
L 30.8125 34.90625 
L 49.125 54.6875 
z
" id="DejaVuSans-Oblique-120"/>
     </defs>
     <g style="fill:#262626;" transform="translate(359.9919 55.143613)scale(0.0833 -0.0833)">
      <use transform="translate(0 0.015625)" xlink:href="#DejaVuSans-Oblique-67"/>
      <use transform="translate(69.824219 0.015625)" xlink:href="#DejaVuSans-Oblique-108"/>
      <use transform="translate(97.607422 -16.390625)scale(0.7)" xlink:href="#DejaVuSans-Oblique-77"/>
      <use transform="translate(158.00293 -16.390625)scale(0.7)" xlink:href="#DejaVuSans-Oblique-97"/>
      <use transform="translate(200.898438 -16.390625)scale(0.7)" xlink:href="#DejaVuSans-Oblique-120"/>
     </g>
    </g>
    <g id="line2d_27">
     <path d="M 336.6679 64.223313 
L 353.3279 64.223313 
" style="fill:none;stroke:#ff0000;stroke-linecap:round;"/>
    </g>
    <g id="line2d_28"/>
    <g id="text_22">
     <!-- $Cl_{Max}\cdot$0.938 -->
     <defs>
      <path d="M 10.6875 40.921875 
L 21 40.921875 
L 21 28.515625 
L 10.6875 28.515625 
z
" id="DejaVuSans-8901"/>
      <path d="M 9.078125 0 
L 9.078125 10.015625 
L 19.09375 10.015625 
L 19.09375 0 
z
" id="ArialMT-46"/>
      <path d="M 5.46875 16.546875 
L 13.921875 17.328125 
Q 14.984375 11.375 18.015625 8.6875 
Q 21.046875 6 25.78125 6 
Q 29.828125 6 32.875 7.859375 
Q 35.9375 9.71875 37.890625 12.8125 
Q 39.84375 15.921875 41.15625 21.1875 
Q 42.484375 26.46875 42.484375 31.9375 
Q 42.484375 32.515625 42.4375 33.6875 
Q 39.796875 29.5 35.234375 26.875 
Q 30.671875 24.265625 25.34375 24.265625 
Q 16.453125 24.265625 10.296875 30.703125 
Q 4.15625 37.15625 4.15625 47.703125 
Q 4.15625 58.59375 10.578125 65.234375 
Q 17 71.875 26.65625 71.875 
Q 33.640625 71.875 39.421875 68.109375 
Q 45.21875 64.359375 48.21875 57.390625 
Q 51.21875 50.4375 51.21875 37.25 
Q 51.21875 23.53125 48.234375 15.40625 
Q 45.265625 7.28125 39.375 3.03125 
Q 33.5 -1.21875 25.59375 -1.21875 
Q 17.1875 -1.21875 11.859375 3.4375 
Q 6.546875 8.109375 5.46875 16.546875 
z
M 41.453125 48.140625 
Q 41.453125 55.71875 37.421875 60.15625 
Q 33.40625 64.59375 27.734375 64.59375 
Q 21.875 64.59375 17.53125 59.8125 
Q 13.1875 55.03125 13.1875 47.40625 
Q 13.1875 40.578125 17.3125 36.296875 
Q 21.4375 32.03125 27.484375 32.03125 
Q 33.59375 32.03125 37.515625 36.296875 
Q 41.453125 40.578125 41.453125 48.140625 
z
" id="ArialMT-57"/>
      <path d="M 17.671875 38.8125 
Q 12.203125 40.828125 9.5625 44.53125 
Q 6.9375 48.25 6.9375 53.421875 
Q 6.9375 61.234375 12.546875 66.546875 
Q 18.171875 71.875 27.484375 71.875 
Q 36.859375 71.875 42.578125 66.421875 
Q 48.296875 60.984375 48.296875 53.171875 
Q 48.296875 48.1875 45.671875 44.5 
Q 43.0625 40.828125 37.75 38.8125 
Q 44.34375 36.671875 47.78125 31.875 
Q 51.21875 27.09375 51.21875 20.453125 
Q 51.21875 11.28125 44.71875 5.03125 
Q 38.234375 -1.21875 27.640625 -1.21875 
Q 17.046875 -1.21875 10.546875 5.046875 
Q 4.046875 11.328125 4.046875 20.703125 
Q 4.046875 27.6875 7.59375 32.390625 
Q 11.140625 37.109375 17.671875 38.8125 
z
M 15.921875 53.71875 
Q 15.921875 48.640625 19.1875 45.40625 
Q 22.46875 42.1875 27.6875 42.1875 
Q 32.765625 42.1875 36.015625 45.375 
Q 39.265625 48.578125 39.265625 53.21875 
Q 39.265625 58.0625 35.90625 61.359375 
Q 32.5625 64.65625 27.59375 64.65625 
Q 22.5625 64.65625 19.234375 61.421875 
Q 15.921875 58.203125 15.921875 53.71875 
z
M 13.09375 20.65625 
Q 13.09375 16.890625 14.875 13.375 
Q 16.65625 9.859375 20.171875 7.921875 
Q 23.6875 6 27.734375 6 
Q 34.03125 6 38.125 10.046875 
Q 42.234375 14.109375 42.234375 20.359375 
Q 42.234375 26.703125 38.015625 30.859375 
Q 33.796875 35.015625 27.4375 35.015625 
Q 21.234375 35.015625 17.15625 30.90625 
Q 13.09375 26.8125 13.09375 20.65625 
z
" id="ArialMT-56"/>
     </defs>
     <g style="fill:#262626;" transform="translate(359.9919 67.138813)scale(0.0833 -0.0833)">
      <use transform="translate(0 0.015625)" xlink:href="#DejaVuSans-Oblique-67"/>
      <use transform="translate(69.824219 0.015625)" xlink:href="#DejaVuSans-Oblique-108"/>
      <use transform="translate(97.607422 -16.390625)scale(0.7)" xlink:href="#DejaVuSans-Oblique-77"/>
      <use transform="translate(158.00293 -16.390625)scale(0.7)" xlink:href="#DejaVuSans-Oblique-97"/>
      <use transform="translate(200.898438 -16.390625)scale(0.7)" xlink:href="#DejaVuSans-Oblique-120"/>
      <use transform="translate(264.541016 0.015625)" xlink:href="#DejaVuSans-8901"/>
      <use transform="translate(315.810547 0.015625)" xlink:href="#ArialMT-48"/>
      <use transform="translate(371.425781 0.015625)" xlink:href="#ArialMT-46"/>
      <use transform="translate(399.208984 0.015625)" xlink:href="#ArialMT-57"/>
      <use transform="translate(454.824219 0.015625)" xlink:href="#ArialMT-51"/>
      <use transform="translate(510.439453 0.015625)" xlink:href="#ArialMT-56"/>
     </g>
    </g>
    <g id="line2d_29">
     <path d="M 336.6679 76.218513 
L 353.3279 76.218513 
" style="fill:none;stroke:#ff0000;stroke-linecap:round;"/>
    </g>
    <g id="line2d_30"/>
    <g id="text_23">
     <!-- $Cl_{Max}\cdot$0.875 -->
     <defs>
      <path d="M 4.734375 62.203125 
L 4.734375 70.65625 
L 51.078125 70.65625 
L 51.078125 63.8125 
Q 44.234375 56.546875 37.515625 44.484375 
Q 30.8125 32.421875 27.15625 19.671875 
Q 24.515625 10.6875 23.78125 0 
L 14.75 0 
Q 14.890625 8.453125 18.0625 20.40625 
Q 21.234375 32.375 27.171875 43.484375 
Q 33.109375 54.59375 39.796875 62.203125 
z
" id="ArialMT-55"/>
     </defs>
     <g style="fill:#262626;" transform="translate(359.9919 79.134013)scale(0.0833 -0.0833)">
      <use transform="translate(0 0.015625)" xlink:href="#DejaVuSans-Oblique-67"/>
      <use transform="translate(69.824219 0.015625)" xlink:href="#DejaVuSans-Oblique-108"/>
      <use transform="translate(97.607422 -16.390625)scale(0.7)" xlink:href="#DejaVuSans-Oblique-77"/>
      <use transform="translate(158.00293 -16.390625)scale(0.7)" xlink:href="#DejaVuSans-Oblique-97"/>
      <use transform="translate(200.898438 -16.390625)scale(0.7)" xlink:href="#DejaVuSans-Oblique-120"/>
      <use transform="translate(264.541016 0.015625)" xlink:href="#DejaVuSans-8901"/>
      <use transform="translate(315.810547 0.015625)" xlink:href="#ArialMT-48"/>
      <use transform="translate(371.425781 0.015625)" xlink:href="#ArialMT-46"/>
      <use transform="translate(399.208984 0.015625)" xlink:href="#ArialMT-56"/>
      <use transform="translate(454.824219 0.015625)" xlink:href="#ArialMT-55"/>
      <use transform="translate(510.439453 0.015625)" xlink:href="#ArialMT-53"/>
     </g>
    </g>
    <g id="line2d_31">
     <path d="M 336.6679 88.213713 
L 353.3279 88.213713 
" style="fill:none;stroke:#ff0000;stroke-linecap:round;"/>
    </g>
    <g id="line2d_32"/>
    <g id="text_24">
     <!-- $Cl_{Max}\cdot$0.813 -->
     <g style="fill:#262626;" transform="translate(359.9919 91.129213)scale(0.0833 -0.0833)">
      <use transform="translate(0 0.015625)" xlink:href="#DejaVuSans-Oblique-67"/>
      <use transform="translate(69.824219 0.015625)" xlink:href="#DejaVuSans-Oblique-108"/>
      <use transform="translate(97.607422 -16.390625)scale(0.7)" xlink:href="#DejaVuSans-Oblique-77"/>
      <use transform="translate(158.00293 -16.390625)scale(0.7)" xlink:href="#DejaVuSans-Oblique-97"/>
      <use transform="translate(200.898438 -16.390625)scale(0.7)" xlink:href="#DejaVuSans-Oblique-120"/>
      <use transform="translate(264.541016 0.015625)" xlink:href="#DejaVuSans-8901"/>
      <use transform="translate(315.810547 0.015625)" xlink:href="#ArialMT-48"/>
      <use transform="translate(371.425781 0.015625)" xlink:href="#ArialMT-46"/>
      <use transform="translate(399.208984 0.015625)" xlink:href="#ArialMT-56"/>
      <use transform="translate(454.824219 0.015625)" xlink:href="#ArialMT-49"/>
      <use transform="translate(510.439453 0.015625)" xlink:href="#ArialMT-51"/>
     </g>
    </g>
    <g id="line2d_33">
     <path d="M 336.6679 100.208913 
L 353.3279 100.208913 
" style="fill:none;stroke:#ff0000;stroke-linecap:round;"/>
    </g>
    <g id="line2d_34"/>
    <g id="text_25">
     <!-- $Cl_{Max}\cdot$0.750 -->
     <g style="fill:#262626;" transform="translate(359.9919 103.124413)scale(0.0833 -0.0833)">
      <use transform="translate(0 0.015625)" xlink:href="#DejaVuSans-Oblique-67"/>
      <use transform="translate(69.824219 0.015625)" xlink:href="#DejaVuSans-Oblique-108"/>
      <use transform="translate(97.607422 -16.390625)scale(0.7)" xlink:href="#DejaVuSans-Oblique-77"/>
      <use transform="translate(158.00293 -16.390625)scale(0.7)" xlink:href="#DejaVuSans-Oblique-97"/>
      <use transform="translate(200.898438 -16.390625)scale(0.7)" xlink:href="#DejaVuSans-Oblique-120"/>
      <use transform="translate(264.541016 0.015625)" xlink:href="#DejaVuSans-8901"/>
      <use transform="translate(315.810547 0.015625)" xlink:href="#ArialMT-48"/>
      <use transform="translate(371.425781 0.015625)" xlink:href="#ArialMT-46"/>
      <use transform="translate(399.208984 0.015625)" xlink:href="#ArialMT-55"/>
      <use transform="translate(454.824219 0.015625)" xlink:href="#ArialMT-53"/>
      <use transform="translate(510.439453 0.015625)" xlink:href="#ArialMT-48"/>
     </g>
    </g>
   </g>
  </g>
 </g>
 <defs>
  <clipPath id="p2865110eaf">
   <rect height="266.112" width="357.12" x="57.6" y="41.472"/>
  </clipPath>
 </defs>
</svg>
